<svg xmlns="http://www.w3.org/2000/svg" xmlns:xlink="http://www.w3.org/1999/xlink" viewBox="0 0 300 300"><defs><style>.a{clip-path:url(#b);}.b{fill:#f1f1f1;}.c{fill:#979797;}.d,.e,.g,.i{fill:none;}.d{stroke:#e47878;}.d,.e{stroke-width:4px;}.e,.g{stroke:#f1f1f1;}.f{fill:#fff;stroke:#707070;}.g{stroke-width:6px;}.h{stroke:none;}</style><clipPath id="b"><rect width="300" height="300"/></clipPath></defs><g id="a" class="a"><g transform="translate(-285 -292)"><circle class="b" cx="150" cy="150" r="150" transform="translate(285 292)"/><circle class="c" cx="130" cy="130" r="130" transform="translate(305 312)"/><line class="d" x2="120" transform="translate(377.291 511.953) rotate(-50)"/><line class="e" x2="100" transform="translate(403.5 442.5)"/><line class="e" x2="120" transform="translate(435.5 353.5) rotate(90)"/><g class="f" transform="translate(428 435)"><circle class="h" cx="7.5" cy="7.5" r="7.5"/><circle class="i" cx="7.5" cy="7.5" r="7"/></g><line class="g" y2="15" transform="translate(435.5 317.5)"/><line class="g" y2="15" transform="translate(435.5 550.5)"/><line class="g" y2="15" transform="translate(557 443) rotate(90)"/><line class="g" y2="15" transform="translate(326 443) rotate(90)"/><line class="e" y2="15" transform="translate(522.803 353.697) rotate(45)"/><line class="e" y2="15" transform="translate(522.803 528.303) rotate(135)"/><line class="e" y2="15" transform="translate(348.197 353.697) rotate(-45)"/><line class="e" y2="15" transform="translate(348.197 528.303) rotate(-135)"/></g></g></svg>